<?xml version="1.0" standalone="no"?><!DOCTYPE svg PUBLIC "-//W3C//DTD SVG 1.1//EN" "http://www.w3.org/Graphics/SVG/1.1/DTD/svg11.dtd"><svg t="1529863399030" class="icon" style="" viewBox="0 0 1024 1024" version="1.1" xmlns="http://www.w3.org/2000/svg" p-id="1746" xmlns:xlink="http://www.w3.org/1999/xlink" width="200" height="200"><defs><style type="text/css"></style></defs><path d="M749.9 200.8h-82.3c-28.6 0-51.9-23.2-51.9-51.9S639 97 667.6 97h207.5c28.6 0 51.9 23.2 51.9 51.9v207.5c0 28.6-23.2 51.9-51.9 51.9s-51.9-23.2-51.9-51.9v-82.3L715 382.3c-20.3 20.3-53.1 20.3-73.4 0s-20.3-53.1 0-73.4l108.3-108.1zM274.1 823.2h82.3c28.6 0 51.9 23.2 51.9 51.9S385 927 356.4 927H148.9c-28.6 0-51.9-23.2-51.9-51.9V667.6c0-28.6 23.2-51.9 51.9-51.9s51.9 23.2 51.9 51.9v82.3L309 641.7c20.3-20.3 53.1-20.3 73.4 0s20.3 53.1 0 73.4L274.1 823.2z" fill="#ffffff" p-id="1747"></path></svg>